<svg id="Capa_1" data-name="Capa 1" xmlns="http://www.w3.org/2000/svg" viewBox="0 0 164.5 141.75"><defs><clipPath id="clip-path"><path d="M52.52 100.78a83.86 83.86 0 01-25.4 4.27c8.28 6.91 23 19.94 47.35 12.5a37.83 37.83 0 01-21.95-16.77z" clip-rule="evenodd" fill="none"/></clipPath><clipPath id="clip-path-2"><path d="M-60.69-32.83h276.01v276.01H-60.69z" fill="none"/></clipPath><style>.cls-7{fill:#fff}.cls-11{fill:#066da5}</style></defs><path d="M43.49 55.12h14.88v13.53H43.49zm-17.59 0h14.88v13.53H25.9zm35.18 0h14.88v13.53H61.08zm17.59 0h14.88v13.53H78.67zm17.58 0h14.88v13.53H96.25zM43.49 38.88h14.88v13.53H43.49zm17.59 0h14.88v13.53H61.08zm17.59 0h14.88v13.53H78.67zm0-16.23h14.88v13.53H78.67z" fill="#099cec"/><path d="M155.46 59.29c-3.05-2-11.08-2.93-16.91-1.36-.31-5.81-3.31-10.71-8.79-15l-2-1.36-1.36 2a23.27 23.27 0 00-3.4 14.36 17 17 0 003.38 8.86c-1.55 1.2-6.36 3.52-12.85 3.4H16.78c-1.72 10.22 1.23 49 46 49 33.24 0 60.56-14.94 73.06-46.31 4.12.07 15 .74 20.3-9.53.13-.17 1.35-2.72 1.35-2.72z" fill-rule="evenodd" fill="#099cec"/><g clip-path="url(#clip-path)"><g clip-path="url(#clip-path-2)"><path class="cls-7" d="M20.35 94.02h60.88v32.52H20.35z"/></g></g><path d="M51.29 98.4a36.19 36.19 0 01-18 4.73 36.69 36.69 0 01-9.56-1.26l1.93 3.24a39.23 39.23 0 0026.94-4.33c-.46-.78-.9-1.56-1.31-2.38z" fill="#026fb6" fill-rule="evenodd"/><ellipse class="cls-7" cx="61.59" cy="91.9" rx="4.7" ry="4.74"/><path d="M62.29 90.57a1.36 1.36 0 01.53-1.06 2.66 2.66 0 00-1.22-.31 2.71 2.71 0 102.69 2.71 1 1 0 000-.16 1.21 1.21 0 01-.62.18 1.36 1.36 0 01-1.38-1.36z" fill="#4d5c64"/><path d="M155.07 59.05c-3-2-11.36-3-16.92-1.38l-1.25 1.75c-18.13 37.58-40.81 53.39-71.81 54.1-33.81-.1-42.27-17.92-44.65-42.23H15c-.7 10.22 1.91 47.78 47 47.78 33.28 0 60.68-14.91 73.33-46.24 4.13.07 15.63.07 20.7-10.21l1-2.18z" opacity=".05" fill-rule="evenodd"/><path class="cls-11" d="M28.61 57.82h1.35v8.12h-1.35zm4.05 0h1.35v8.12h-1.35zm4.06 0h1.35v8.12h-1.35zm9.47 0h1.35v8.12h-1.35zm4.06 0h1.35v8.12h-1.35zm4.06 0h1.35v8.12h-1.35zm9.47 0h1.35v8.12h-1.35zm4.06 0h1.35v8.12h-1.35zm4.06 0h1.35v8.12H71.9zm9.47 0h1.35v8.12h-1.35zm4.06 0h1.35v8.12h-1.35zm4.06 0h1.35v8.12h-1.35zm9.47 0h1.35v8.12h-1.35zm4.06 0h1.35v8.12h-1.35zm4.06 0h1.35v8.12h-1.35zM50.25 41.59h1.35v8.12h-1.35zm4.06 0h1.35v8.12h-1.35zm9.47 0h1.35v8.12h-1.35zm4.06 0h1.35v8.12h-1.35zm4.06 0h1.35v8.12H71.9zm9.47 0h1.35v8.12h-1.35zm4.06 0h1.35v8.12h-1.35zm4.06 0h1.35v8.12h-1.35zm-4.06-16.24h1.35v8.12h-1.35zm-4.06 0h1.35v8.12h-1.35zm8.12 0h1.35v8.12h-1.35zm-43.3 16.24h1.35v8.12h-1.35z"/><path class="cls-11" d="M155.74 58c-3.25-2.19-10.66-3-16.46-1.9-.75-5.47-3.82-10.22-9.21-14.42l-3.19-2.14-2.1 3.18a24.58 24.58 0 00-3.61 15.16 19.28 19.28 0 002.83 8.34 22.78 22.78 0 01-10.12 2.39v-16.2H96.25V19.94H76v16.24H40.78v16.23H23.19v16.21h-8L15 69.75a42.92 42.92 0 00.16 12.4A48.93 48.93 0 0020.7 99c7.5 13.46 21.13 21.38 41.61 21.38 34.85 0 61.54-16.09 74-46.29a27.74 27.74 0 0010.39-1.35 17.8 17.8 0 0010.18-8.89c.13-.22.32-.6.73-1.43.15-.31.31-.63.46-1 .06-.11.11-.22.21-.43l.51-1.07zm-59.49-2.88h14.89v13.5H96.25zM78.67 22.65h14.88v13.53H78.67zm0 16.23h14.88v13.53H78.67zm0 16.24h14.88v13.5H78.67zM61.08 38.88H76v13.53H61.08zm0 16.24H76v13.5H61.08zM43.49 38.88h14.88v13.53H43.49zm0 16.24h14.88v13.5H43.49zm-17.59 0h14.88v13.5H25.9zm129.22 6.13c-.16.34-.31.63-.41.85l-.24.44a15.13 15.13 0 01-8.7 7.63 25.6 25.6 0 01-9.67 1.19h-1.64l-.34.87c-11.84 29.68-37.69 45.45-71.81 45.45-19.5 0-32.23-7.38-39.25-20a46.19 46.19 0 01-5.24-15.9 43.27 43.27 0 01-.33-10.42h96.35c5.36-.06 10.37-1.72 12.89-3.68l1.11-.86-.9-1.08a15.71 15.71 0 01-3.08-8.13A22 22 0 01127 44.17l.6-.9.86.58c5.25 4.1 7.95 8.66 8.24 13.95l.09 1.67 1.61-.43c5.27-1.42 13-.73 15.81 1.18l1 .7z"/></svg>